PathFileType	4	(X/Y/Z)	Formatted/subject19/trials/walk2/markers.trc
DataRate	CameraRate	NumFrames	NumMarkers	Units	OrigDataRate	OrigDataStartFrame	OrigNumFrames
200.00000000000426	200.00000000000426	4	64	m	200.00000000000426	26	213
Frame#	Time	CLAV			C7			RACR			RASH			RPSH			RLEL			RMEL			RUA1			RUA2			RUA3			RFAsuperior			RFAradius			RFAulna			RASI			RPSI			RCAL			RTOE			RMT5			RTH1			RTH2			RTH3			RTB1			RTB2			RTB3			RLFC			RMFC			RLMAL			RMMAL			RHJC			RKJC			REJC			RAJC			RSJC			LACR			LASH			LPSH			LLEL			LMEL			LUA1			LUA2			LUA3			LFAsuperior			LFAradius			LFAulna			LASI			LPSI			LCAL			LTOE			LMT5			LTH1			LTH2			LTH3			LTB1			LTB2			LTB3			LLFC			LMFC			LLMAL			LMMAL			LHJC			LKJC			LEJC			LAJC			LSJC			
		X1	Y1	Z1	X2	Y2	Z2	X3	Y3	Z3	X4	Y4	Z4	X5	Y5	Z5	X6	Y6	Z6	X7	Y7	Z7	X8	Y8	Z8	X9	Y9	Z9	X10	Y10	Z10	X11	Y11	Z11	X12	Y12	Z12	X13	Y13	Z13	X14	Y14	Z14	X15	Y15	Z15	X16	Y16	Z16	X17	Y17	Z17	X18	Y18	Z18	X19	Y19	Z19	X20	Y20	Z20	X21	Y21	Z21	X22	Y22	Z22	X23	Y23	Z23	X24	Y24	Z24	X25	Y25	Z25	X26	Y26	Z26	X27	Y27	Z27	X28	Y28	Z28	X29	Y29	Z29	X30	Y30	Z30	X31	Y31	Z31	X32	Y32	Z32	X33	Y33	Z33	X34	Y34	Z34	X35	Y35	Z35	X36	Y36	Z36	X37	Y37	Z37	X38	Y38	Z38	X39	Y39	Z39	X40	Y40	Z40	X41	Y41	Z41	X42	Y42	Z42	X43	Y43	Z43	X44	Y44	Z44	X45	Y45	Z45	X46	Y46	Z46	X47	Y47	Z47	X48	Y48	Z48	X49	Y49	Z49	X50	Y50	Z50	X51	Y51	Z51	X52	Y52	Z52	X53	Y53	Z53	X54	Y54	Z54	X55	Y55	Z55	X56	Y56	Z56	X57	Y57	Z57	X58	Y58	Z58	X59	Y59	Z59	X60	Y60	Z60	X61	Y61	Z61	X62	Y62	Z62	X63	Y63	Z63	X64	Y64	Z64	

27	2.85	1.15411790007823	1.399282117010567	-0.4575587932301675	1.040590639272178	1.477290287867706	-0.4900934687195225	1.07028075141223	1.419981849604532	-0.2984457975561164	1.130757405863195	1.38086183553738	-0.2781056204773059	1.035820186480196	1.396019714738744	-0.2825856439081815	0.9658983719116764	1.120158092356201	-0.2713540278135377	0.9567148239173484	1.124811901962375	-0.3345942022481634	1.049447306566589	1.328577659900551	-0.264628738334705	1.065717618810787	1.23904615278733	-0.2846562737628162	0.9826541243919705	1.228112393390565	-0.2794268261193474	1.014915181334713	1.042755201832823	-0.3135718650534918	1.024716066230809	0.8488630349822491	-0.2785612636508938	0.9560154806009373	0.8586897007848479	-0.2871585332412507	1.14739202463849	0.9706503515652334	-0.380228997810891	0.9776386613400747	0.9958683251980078	-0.4528929150958446	1.169076536390165	0.05001082987851726	-0.4382456853554886	1.378246990744075	0.04979917046155609	-0.4673508710007532	1.371208618726819	0.01694370137671455	-0.3619141940734533	1.108389286677121	0.8113319997250548	-0.3207779945298697	1.223144146130596	0.7011219260571385	-0.3497163798946877	1.197480513807437	0.5930989008114255	-0.3611846985904585	1.299822396093902	0.3762014148175841	-0.4215951526019253	1.252496556996092	0.3178627958896184	-0.3586341133727181	1.285452935894029	0.1964429009661507	-0.4219644554026596	1.240084255428093	0.5060063129153884	-0.369018386352429	1.235219393028435	0.5056637379704705	-0.4821735393958476	1.253172475917648	0.06185003928430427	-0.3748966235356788	1.251586329585192	0.06309454527945729	-0.4762829709663452	1.076997097170972	0.8637074576853103	-0.4197724100398066	1.241779547575014	0.5048622117356453	-0.4281561782386089	0.9655950767535957	1.115495401291007	-0.3030110732029264	1.239678479372549	0.04955278684689546	-0.4323128829435729	1.086284065443229	1.387962544049259	-0.2802042874534996	1.085437407423091	1.449345045049364	-0.6689667811676416	1.153204738365966	1.404654972674363	-0.6732896768001568	1.050672541432327	1.421025482211836	-0.6781281021055026	1.055488093906281	1.133520908831306	-0.743648729464529	1.024964822871175	1.132883525550573	-0.6862122442994429	1.077319814282833	1.355345661519686	-0.7206724436790996	1.025534162427775	1.287388979371738	-0.7033911610866103	1.100371046689369	1.243158448734645	-0.724505195757188	1.113194766840643	1.100888683736813	-0.6885442468350126	1.256830059234843	0.9552944035826296	-0.6963820209073404	1.204086138588613	0.9183256408468641	-0.7212594781221098	1.144870964930528	0.9635013544036832	-0.6154915462113764	0.9761643459189208	0.9951364799299255	-0.5503782010963597	0.6319617760767074	0.2174317162543889	-0.574020898208644	0.7647366738259826	0.05925817500443688	-0.543390980080531	0.7338372290441005	0.04343490643898304	-0.650637617544131	1.06367723513884	0.794366375360871	-0.6795576609907603	1.113586697873997	0.6796523937231683	-0.6669611752159614	1.012077027348025	0.5769539877307384	-0.6534450386921998	0.9525846396016597	0.3406342125361018	-0.6019046722425123	0.8537811336935068	0.3048429958557329	-0.6490507109693817	0.8009112223739406	0.220028945668988	-0.585484669059925	1.01207537547917	0.4717200522224259	-0.6377502656136491	1.010943833496446	0.4693241262116469	-0.5245210641886977	0.6921942990615052	0.1623528472800252	-0.6362447600441185	0.6921933932610342	0.1627202401711269	-0.5348390347504506	1.076577793592368	0.8573096437767687	-0.5723010026608856	1.015068858558476	0.4650750664101334	-0.5784741723890553	1.044135490577295	1.122615142855251	-0.714751311079015	0.6741059780118412	0.1632927212393806	-0.5787828902241421	1.108731397946	1.411755681186242	-0.6753883437763506	
28	2.855	1.16052977343461	1.399806204296242	-0.4570577020041746	1.046811075901439	1.477696607089348	-0.4892036466922129	1.077055756818626	1.420164177821514	-0.2977098646099502	1.137638325308179	1.38110270753026	-0.277573381012088	1.042668746396986	1.396130575183106	-0.2817982847079305	0.9743754003333274	1.11962299919861	-0.2705985651327644	0.9648178802879215	1.124352338561474	-0.3337776939642784	1.056745419026977	1.328512112270282	-0.2638986698756128	1.073426405089518	1.239118113243484	-0.2842007299629738	0.9904579211773719	1.22768944951439	-0.2785390477965037	1.023953382754166	1.042792266575368	-0.313097408515399	1.035762757854081	0.8489387036458268	-0.2784952883404625	0.9669413969768582	0.8581101022431884	-0.2868470908924847	1.154153445621237	0.9714074263484991	-0.3797209977082047	0.9844471552324867	0.9963324307414729	-0.4525956474772517	1.169403428716335	0.05022864666334963	-0.4381660888187811	1.378556820735704	0.0493704299093549	-0.4673817982329097	1.371468329679209	0.01644730731871124	-0.3619695851628222	1.115148304063794	0.8117635114111568	-0.3201865170989381	1.229441184531488	0.7011144458559906	-0.3492775813586544	1.203338303912439	0.5932018015144767	-0.3607936204160556	1.303884546052092	0.3754760321780105	-0.4214979210877292	1.256028646520443	0.3176432676853321	-0.3584708935780405	1.287470428701168	0.1958928330409899	-0.4219365694362023	1.245588423432201	0.5059448060984862	-0.3687124891484057	1.240639014529218	0.5056918061215516	-0.481864211391431	1.253758548908898	0.06164878529116802	-0.3748760539984302	1.251976665893493	0.06296959571122751	-0.4762581848373774	1.083892552327005	0.8643251693449455	-0.419125400048515	1.247295575837746	0.5047924619987328	-0.427867333437733	0.9739254638042175	1.115023292614856	-0.3022630792640645	1.240006641122547	0.04953885703138039	-0.4322709307248559	1.093149826067231	1.388142512132235	-0.2795525371484054	1.09125650666209	1.450064693719175	-0.6682257463445288	1.159076868299005	1.40547795905833	-0.6727779741919565	1.056509723074916	1.421708056123404	-0.6773408701834664	1.061060429235056	1.134109504291463	-0.7420811156550817	1.030696966289719	1.133645312302022	-0.6845583305694106	1.083031615229745	1.355990768085822	-0.7197937562027006	1.031271123175061	1.288101322458187	-0.7021761017254036	1.106033859708783	1.243785128419827	-0.7233730288243033	1.118410670324618	1.100317919663055	-0.6869764241337218	1.259881875453876	0.9526629203627957	-0.6955858165691154	1.206602778300395	0.916612413289712	-0.720669620250083	1.151864117899149	0.9638027345148894	-0.614971626236705	0.9830668581145523	0.9954113681963604	-0.5500807058898818	0.6416375417363641	0.2258454444828522	-0.5749655836609419	0.7674973217043966	0.06232425960906711	-0.5432422106957682	0.7363830158083149	0.0474289099501649	-0.6505595964741965	1.071840810815126	0.7947900004523143	-0.6790854441443765	1.12377579513304	0.6809417103069797	-0.6668278855602391	1.02410247785211	0.5764205582288029	-0.6536210562408274	0.9638841272603892	0.3410014664712654	-0.6023168298717791	0.8643680193469196	0.307371982075334	-0.6495555320539677	0.8095295230851168	0.2238381127922068	-0.5859621021544338	1.025966201174797	0.4711569474414387	-0.6382390581044908	1.024878719883898	0.4684048613742446	-0.5250175216780639	0.6996178714557519	0.1685465764512611	-0.6368026708155127	0.6994895564717737	0.1690360560456095	-0.5353975425148032	1.083625071513604	0.8576330115616692	-0.5716417037130237	1.029104404272434	0.4640419956989665	-0.5789472836895426	1.049784605960548	1.123289521311363	-0.7131214557639575	0.6814782579180125	0.1699599466740308	-0.5793666715643641	1.114588369058057	1.412517763660305	-0.6747571303282739	
29	2.86	1.166898300690845	1.400322122529734	-0.4565973147478792	1.052996226594243	1.478105288021175	-0.4883512980952152	1.083807977209502	1.42036818939414	-0.297009579738854	1.144492819611199	1.381360005700132	-0.2770788109285773	1.04949324860049	1.396269558108089	-0.28104041297518	0.9828466507050541	1.119115809111865	-0.2697906299554411	0.9728955451762755	1.123903675098889	-0.3329045507509513	1.064027561170284	1.328472777055036	-0.2631807974615612	1.08111461150553	1.239215361259719	-0.2837444167489139	0.998248791398974	1.227289135644361	-0.2776240145638951	1.033001503670105	1.042877872956318	-0.3125652492235113	1.046913724282862	0.8490968571432801	-0.2783404051856187	0.9779730944580799	0.8575781969766156	-0.2864338164000839	1.16082673331497	0.9721656042104031	-0.379209864106923	0.9911638479802046	0.9967872900159996	-0.452288406432522	1.169700736878047	0.0504157761654075	-0.4380748414225848	1.37883820406976	0.04902971255552358	-0.46738412749509	1.37170936760425	0.01603732001394303	-0.3619962956740473	1.121821862456247	0.8121881899700741	-0.3196028028493457	1.235612836144836	0.7010647709066126	-0.3488529019303139	1.209035809614018	0.5932722344232733	-0.3604092456527109	1.307785605447509	0.3747435637709453	-0.4213979362510586	1.259424696185204	0.3174061999962604	-0.3583037912275425	1.289396205970489	0.1953520319382085	-0.4218973024984815	1.250903089156058	0.5058386831027437	-0.3684135780851848	1.245858490810817	0.5056725168475699	-0.4815612573382337	1.254305440724814	0.06146118158279706	-0.3748385552326278	1.252332051148766	0.06285695655439005	-0.4762161348372995	1.090710490229183	0.8649412511044641	-0.4184853064573695	1.252609706808085	0.5046780529138934	-0.4275841083853764	0.9822401860998543	1.114571068309925	-0.3014604693998397	1.240304479246391	0.04953463304201838	-0.4322116126920944	1.099990270571232	1.388344385525639	-0.2789346234073083	1.097016979133618	1.450759551660994	-0.6675222085821211	1.164883270484297	1.406267016175635	-0.6723057138912382	1.062283733792732	1.422369332776228	-0.6765842441015689	1.066533552981118	1.134678834342939	-0.7405447212798917	1.036344696138875	1.134388072031557	-0.6829289722169398	1.088664009428215	1.356612179627483	-0.7189440783123944	1.036929194037394	1.288794029918041	-0.7009798204341099	1.111608903959963	1.244387291160054	-0.7222796801813784	1.123513501841845	1.099724953750736	-0.6854520047244098	1.262762444037201	0.9500201590940813	-0.6948556684505562	1.208952171894651	0.9149052623795254	-0.7201320823871212	1.158765543341672	0.9641313213798122	-0.6144483226498444	0.9898758467432546	0.9956877706119102	-0.5497728785291249	0.6518080074899084	0.2343062989555232	-0.5759926477988343	0.770658116038983	0.06583642057599659	-0.5431477656240374	0.7394065658000175	0.05184601231935582	-0.6505470293442596	1.080051988083582	0.7952152410445549	-0.6786126891316067	1.134073536191418	0.6823133100241608	-0.6666231178523336	1.036339606669882	0.5759320333512756	-0.6537792576875425	0.975485152215722	0.3415172396804922	-0.6027022807298343	0.8753285941088796	0.3100397016986998	-0.6500702172442587	0.8185447511184378	0.2278238859890546	-0.586466387654463	1.04013744786522	0.4706792582445059	-0.6386816809991384	1.039016880784309	0.4675984956062191	-0.5254689337706406	0.7075213288679523	0.1749152889348559	-0.6374268492513292	0.7072318324594491	0.1755389749235594	-0.5360227896269301	1.090592684489215	0.8579718124764667	-0.5709893800170113	1.043376067059785	0.4631127195930491	-0.5793751505721082	1.055341240472164	1.123944514626446	-0.711520857923281	0.6893200588903123	0.1768046912735795	-0.5800240519791876	1.120380721444331	1.413251396001142	-0.6741615263699692	
30	2.865	1.173225471855366	1.400828328972294	-0.4561752933350341	1.059149709373299	1.478515822666657	-0.4875375718463753	1.09053779131571	1.420598163858906	-0.2963441545234579	1.151320401356106	1.38163754491772	-0.2766193344687694	1.056293510038009	1.396441919814367	-0.2803109393146601	0.9913150308027897	1.118640038569786	-0.268930380900644	0.9809537128275523	1.123468243603478	-0.3319751799415258	1.071293521849387	1.328464080423563	-0.262474177219494	1.088783890106374	1.23934207696676	-0.2832845477085821	1.00602871906137	1.226915010758232	-0.2766824258505891	1.042062370009723	1.043015362947546	-0.3119749891488793	1.058169620787848	0.8493437169246698	-0.2780954684838892	0.9891125447709612	0.8571005457244794	-0.2859184302031443	1.16741173856446	0.9728960785557248	-0.3787006096638881	0.9977862855873341	0.9972251038085337	-0.4519638313580974	1.169968789342162	0.05055664897362724	-0.4379791765165338	1.37909508870284	0.04875863476366969	-0.4673457164282099	1.371925663714564	0.01569623203632691	-0.3619825813090299	1.128394845863598	0.812589364847215	-0.319044547551295	1.241650941443701	0.7009610060907678	-0.3484475166001788	1.214570426568429	0.593297619506149	-0.3600388601022544	1.311531610869173	0.3739904419521172	-0.4212916964003051	1.262683388088976	0.3171389085619751	-0.3581333537371091	1.291232780654651	0.1948050803332912	-0.4218437349160467	1.256029753739403	0.5056773123304728	-0.3681240497370694	1.250891123522151	0.5055945265672701	-0.4812675892346817	1.254808496053945	0.06127133779933952	-0.3747835776186376	1.252656956812094	0.06273971506227322	-0.4761565071797202	1.097444133260433	0.8655371553125126	-0.4178733760118698	1.257730257081287	0.5045079813182148	-0.4273088579896371	0.9905437013955766	1.114141685911566	-0.3006032568833522	1.240572104949987	0.0495237340002615	-0.4321356148795589	1.106805054118144	1.388572654338054	-0.2783486667588269	1.102724188650671	1.451423366282362	-0.6668559888555917	1.170628656421883	1.407014614690911	-0.6718706850029997	1.067999613798339	1.42300333957929	-0.6758576182365617	1.071912015532471	1.135223624875153	-0.7390438832998034	1.041910834537382	1.13510591062371	-0.6813295744803856	1.094222811328258	1.357204093385141	-0.7181236868523602	1.042513140932373	1.289461536116823	-0.6998053070945969	1.117101040200435	1.244958916352044	-0.7212264103187853	1.12850841910171	1.099107096001091	-0.6839769851098777	1.265475711936096	0.9473644950009005	-0.6941929565520547	1.211138016745605	0.9132013228861509	-0.7196446954565987	1.165563675653575	0.9645011880369003	-0.6139282463459159	0.9965842265366759	0.995975678665358	-0.5494475950365173	0.6624430779345331	0.2427176970448252	-0.5771216077213521	0.7743142550469455	0.0697588233855693	-0.5431171629762833	0.7430223939067506	0.05662741639834346	-0.6506131086676931	1.088304856062056	0.7956426538052075	-0.6781534083188234	1.144454506509087	0.6837656614869358	-0.6663348275218128	1.048750568466146	0.5755062519936126	-0.6539042905488572	0.9873618404081632	0.3421910595438691	-0.603033841444556	0.8866523744163877	0.3128223444578238	-0.6505835519871568	0.8279593285215757	0.2319476069340172	-0.5869934937225335	1.054534424703552	0.4703099599066058	-0.6390451443602749	1.053285915428883	0.4669414062730003	-0.5258419333852826	0.7159292459513174	0.1813831119817591	-0.6381303789047874	0.7154278732253931	0.1821589961340088	-0.5367281958421741	1.097466374722481	0.858335241160845	-0.5703666917445136	1.057819230371261	0.4623207983240885	-0.5797230260339228	1.060808969870939	1.124574491084665	-0.7099544273102627	0.697645601436678	0.1837490428943242	-0.5807714395941416	1.126113309183921	1.413949724111246	-0.6736000172930572	
